<svg width="371" height="86" viewBox="0 0 371 86" fill="none" xmlns="http://www.w3.org/2000/svg">
<g clip-path="url(#clip0_101_2)">
<path d="M42.5775 4.99443C43.4515 4.24526 44.5753 3.24638 44.5753 1.24861C44.5753 0.499443 44.0758 0 43.3267 0C42.5775 0 42.078 0.499443 42.078 1.24861C42.078 2.12263 41.7035 2.49721 40.9543 3.24638C40.0803 3.99554 38.9565 4.99442 38.9565 6.99219C38.9565 8.98997 40.0803 9.98885 40.9543 10.738C41.7035 11.4872 42.078 11.8618 42.078 12.7358C42.078 13.6098 41.7035 13.9844 40.9543 14.6087C40.0803 15.3579 38.9565 16.3567 38.9565 18.3545C38.9565 19.1037 39.456 19.6031 40.2051 19.6031C40.9543 19.6031 41.4537 19.1037 41.4537 18.3545C41.4537 17.4805 41.8283 17.1059 42.5775 16.4816C43.4515 15.7324 44.5753 14.7336 44.5753 12.7358C44.5753 10.738 43.4515 9.73913 42.5775 8.98997C41.8283 8.2408 41.4537 7.86622 41.4537 6.99219C41.4537 6.11817 41.8283 5.74359 42.5775 4.99443Z" fill="#111111"/>
<path d="M51.4426 4.99443C52.3166 4.24526 53.4404 3.24638 53.4404 1.24861C53.4404 0.499443 52.9409 0 52.1917 0C51.4426 0 50.9431 0.499443 50.9431 1.24861C50.9431 2.12263 50.5686 2.49721 49.8194 3.24638C48.9454 3.99554 47.8216 4.99442 47.8216 6.99219C47.8216 8.98997 48.9454 9.98885 49.8194 10.738C50.5686 11.4872 50.9431 11.8618 50.9431 12.7358C50.9431 13.6098 50.5686 13.9844 49.8194 14.6087C48.9454 15.3579 47.8216 16.3567 47.8216 18.3545C47.8216 19.1037 48.3211 19.6031 49.0702 19.6031C49.8194 19.6031 50.3188 19.1037 50.3188 18.3545C50.3188 17.4805 50.6934 17.1059 51.4426 16.4816C52.3166 15.7324 53.4404 14.7336 53.4404 12.7358C53.4404 10.738 52.3166 9.73913 51.4426 8.98997C50.6934 8.2408 50.3188 7.86622 50.3188 6.99219C50.194 6.11817 50.5686 5.74359 51.4426 4.99443Z" fill="#111111"/>
<path d="M87.0279 34.4615H84.7804C84.7804 34.4615 84.7804 34.4615 84.7804 34.3367V27.5942C84.7804 26.845 84.2809 26.3456 83.5318 26.3456H3.12152C2.37235 26.3456 1.87291 26.845 1.87291 27.5942V34.3367C1.87291 50.5686 11.1126 64.9275 25.4716 71.67H1.24861C0.499443 71.67 0 72.1694 0 72.9186C0 73.6678 0.499443 74.1672 1.24861 74.1672H4.7447L7.24192 80.2854C7.49164 80.7848 7.86622 81.0345 8.36566 81.0345H84.6555C85.155 81.0345 85.6544 80.7848 85.7793 80.2854L88.2765 74.1672H91.7726C92.5217 74.1672 93.0212 73.6678 93.0212 72.9186C93.0212 72.1694 92.5217 71.67 91.7726 71.67H61.1817C69.2977 67.7993 75.7904 61.5563 79.9108 53.9398H87.0279C92.3969 53.9398 96.767 49.5697 96.767 44.2007C96.767 38.8316 92.3969 34.4615 87.0279 34.4615ZM83.7815 78.6622H9.23969L7.49164 74.2921H85.7793L83.7815 78.6622ZM54.689 71.67C54.5641 71.67 54.5641 71.7949 54.4392 71.7949H32.214C32.0892 71.7949 32.0892 71.67 31.9643 71.67C15.4827 66.6756 4.37012 51.6923 4.37012 34.4615V28.9677H82.2832V34.4615C82.2832 51.6923 71.1706 66.6756 54.689 71.67ZM87.0279 51.4426H81.1594C83.1572 46.9476 84.4058 42.078 84.7804 36.9587H87.0279C91.0234 36.9587 94.2698 40.2051 94.2698 44.2007C94.2698 48.1962 91.0234 51.4426 87.0279 51.4426Z" fill="#111111"/>
<path d="M133.206 43.0946C133.808 43.6295 132.938 44.0975 132.938 44.0975C132.136 45.1005 124.447 52.8568 119.967 52.8568C119.432 52.8568 118.964 52.7231 118.563 52.5225C117.894 52.1881 116.824 51.252 117.025 48.9118C117.359 45.5686 120.301 40.6206 123.377 39.5507C124.714 39.0827 125.851 39.1496 126.586 39.8182C127.924 40.9549 126.72 43.0277 126.653 43.2952C126.653 43.2952 126.319 43.9638 125.583 43.8969C124.915 43.8969 124.447 43.0946 124.447 43.0946C124.58 42.5597 125.65 41.5567 125.383 41.2892C125.115 41.0886 124.647 41.1555 123.979 41.3561C121.906 42.0916 119.231 46.2372 118.964 49.1124C118.897 49.7142 118.964 51.1183 119.499 51.3858C121.438 52.4556 129.395 46.7721 131.668 43.9638C131.668 43.9638 132.337 42.3591 133.206 43.0946ZM157.615 41.5567C157.682 42.3591 156.679 42.1585 156.679 42.1585C156.211 42.2253 154.606 42.2922 152.466 42.2253C151.597 42.2253 150.795 42.2253 150.527 42.2922C150.594 43.8969 149.992 45.7691 149.056 47.5076C147.518 50.1822 145.044 52.5893 142.637 52.5893C142.035 52.5893 141.434 52.4556 140.832 52.1213C139.896 51.5864 139.361 50.784 139.16 49.781C138.492 45.7692 145.713 37.8791 146.382 37.1436C146.382 37.1436 147.184 36.3412 147.719 36.6756C148.588 37.2774 147.853 38.1466 147.853 38.1466C145.445 40.7543 140.698 47.1733 141.032 49.4467C141.099 49.9148 141.3 50.6503 141.701 50.8509C143.439 51.787 145.913 49.1124 147.318 46.5715C148.187 45.1005 148.655 43.4289 148.588 42.2253C147.719 42.0247 147.184 41.6904 146.983 41.1555C146.649 40.42 147.117 39.6176 147.652 39.1496L148.187 38.7484L148.789 39.0827C149.324 39.417 149.725 39.8182 150.059 40.3531C150.393 40.7543 150.861 40.9549 151.33 41.0886C153.135 41.2892 154.806 41.2892 155.876 41.1555C155.876 41.1555 157.481 40.42 157.615 41.5567V41.5567ZM180.486 13.3398C181.154 13.741 180.82 14.6771 180.82 14.6771C180.686 15.0115 172.462 31.5939 165.308 48.3769C167.447 48.9118 169.654 47.307 171.66 45.7023C172.328 45.1674 172.863 44.2981 173.264 43.4958C173.264 43.4958 173.933 42.8271 174.535 43.2283C175.137 43.5626 174.936 44.4319 174.936 44.4319C174.334 45.5017 173.264 46.1035 172.395 46.7721C169.854 48.8449 166.712 49.9148 165.174 49.781C167.915 61.148 159.223 77.4629 155.813 81.2074C155.278 81.876 154.542 82.5447 153.807 82.5447C153.673 82.5447 153.539 82.4778 153.406 82.4778C153.138 82.4109 152.603 82.1435 152.47 81.2074V81.1405V81.0736C152.938 74.1197 157.484 61.616 162.7 49.2461C162.432 48.8449 162.165 48.3769 162.165 47.7751C162.232 47.0396 162.967 47.0396 163.569 47.1064C170.657 30.6578 178.547 15.0115 179.148 13.8079C179.148 13.8079 179.75 13.0055 180.486 13.3398V13.3398ZM160.694 68.5031C162.232 64.5581 164.371 57.8716 163.636 52.0544C159.223 62.7527 155.612 71.7795 154.81 78.2653C156.214 76.5937 158.487 74.0529 160.694 68.5031ZM198.342 13.3398C199.011 13.741 198.676 14.6771 198.676 14.6771C198.543 15.0115 190.318 31.5939 183.164 48.3769C185.303 48.9118 187.51 47.307 189.516 45.7023C190.184 45.1674 190.719 44.2981 191.121 43.4958C191.121 43.4958 191.789 42.8271 192.391 43.2283C192.993 43.5626 192.792 44.4319 192.792 44.4319C192.19 45.5017 191.121 46.1035 190.251 46.7721C187.711 48.8449 184.568 49.9148 183.03 49.781C185.771 61.148 177.079 77.4629 173.669 81.2074C173.134 81.876 172.399 82.5447 171.663 82.5447C171.529 82.5447 171.396 82.4778 171.262 82.4778C170.994 82.4109 170.459 82.1435 170.326 81.2074V81.1405V81.0736C170.794 74.1197 175.341 61.616 180.556 49.2461C180.289 48.8449 180.021 48.3769 180.021 47.7751C180.088 47.0396 180.823 47.0396 181.425 47.1064C188.513 30.6578 196.403 15.0115 197.005 13.8079C197.005 13.8079 197.606 13.0055 198.342 13.3398V13.3398ZM178.55 68.5031C180.088 64.5581 182.228 57.8716 181.492 52.0544C177.079 62.7527 173.468 71.7795 172.666 78.2653C174.07 76.5937 176.344 74.0529 178.55 68.5031ZM215.73 43.1614C216.332 43.6295 215.463 44.1644 215.463 44.1644C214.928 44.7662 207.439 53.3248 201.822 52.7899C201.622 52.7899 201.421 52.7231 201.22 52.7231C200.552 52.5893 199.683 52.1213 199.148 50.8509C197.677 47.1064 200.084 43.1614 202.959 41.0218C204.764 39.6845 206.369 39.3502 207.305 40.1525C207.773 40.4869 208.041 41.0218 207.974 41.6235C207.907 43.6295 204.229 46.3041 203.093 47.0396C203.093 47.0396 202.625 47.1733 202.09 46.6384C201.555 46.0366 202.023 45.4348 202.023 45.4348C204.029 44.0975 205.834 42.3591 206.035 41.6235C205.634 41.6235 204.43 42.0916 203.026 43.4958C201.421 45.1674 200.017 47.7751 200.953 50.1153C201.889 51.9207 204.363 50.9846 206.369 50.1822C208.509 49.3798 213.122 45.3011 214.192 44.0307C214.192 44.0307 214.861 42.3591 215.73 43.1614ZM273.307 46.9727C273.708 47.4408 273.04 48.0425 273.04 48.0425C269.429 51.5195 260.67 61.5492 258.597 60.3456C257.661 59.8107 258.396 58.4066 258.798 57.6042C259.199 56.7349 259.801 55.6651 260.469 54.4615C261.673 52.3887 262.876 50.3828 263.812 48.2431C266.019 43.8301 266.019 42.9608 265.751 42.894C263.679 42.7602 259.199 46.5715 256.257 51.4526C256.257 51.4526 255.521 51.9207 254.919 51.5195C254.384 51.1852 254.652 50.1822 254.652 50.1822C254.652 50.1153 254.786 49.9816 254.986 49.781C255.722 48.31 259.332 41.6235 259.266 41.423C257.393 40.888 253.248 46.1035 251.71 48.6443C250.172 51.1852 249.503 52.255 248.434 52.1213C248.233 52.0544 247.631 51.8538 247.431 50.9846C246.762 47.9088 250.038 41.8241 250.439 41.0886C250.439 41.0886 251.041 39.7513 252.044 40.42C252.78 40.888 252.111 42.0247 252.111 42.0247C251.108 43.7632 249.838 46.7053 249.37 48.7781C249.637 48.4437 249.838 48.0425 250.105 47.7082C252.379 43.8969 256.792 38.2135 260.202 39.8182H260.335L260.402 39.8851C261.472 40.8212 260.068 43.0277 259.332 45.1005C260.402 44.0975 265.885 39.6176 267.49 42.1585C268.961 44.6993 265.618 49.7142 262.275 55.4645C262.007 55.9994 261.673 56.6012 261.338 57.1361C265.016 55.3308 271.034 48.3769 272.304 46.839C272.304 46.839 272.906 46.5047 273.307 46.9727V46.9727ZM298.986 46.2372C298.986 46.2372 299.521 45.9697 299.789 46.2372C300.056 46.5715 299.789 46.9727 299.789 46.9727C298.05 49.0455 293.102 52.9905 290.428 52.9905C289.559 52.9905 289.024 52.6562 288.823 52.3219C288.221 51.6532 287.887 50.3828 289.559 46.1703C284.544 51.9876 282.939 51.4526 282.337 51.3189C281.936 51.1852 281.201 50.7171 281.067 49.3798V49.313C280.933 46.5047 288.288 38.7484 289.692 38.8821C289.692 38.8821 290.695 39.1496 290.628 39.6176C290.628 40.4869 289.759 40.8212 289.425 40.7543C288.154 40.1525 282.872 47.0396 283.006 49.2461V49.4467C283.808 49.2461 286.148 47.4408 289.826 42.8271C290.896 41.423 291.765 40.42 292.233 39.8182C292.835 39.1496 293.37 38.4809 294.105 39.0827C294.373 39.2833 294.707 39.7513 294.306 40.42C291.765 45.2342 289.96 50.0485 290.294 51.0514C290.562 52.0544 292.3 51.5195 294.573 49.9816C296.245 48.8449 298.05 47.307 298.986 46.2372V46.2372ZM369.799 15.1452C370.936 15.6132 369.532 16.7499 369.064 16.5493H368.997C361.842 13.4736 341.382 12.9387 325.201 13.5404C317.712 27.2477 307.415 46.3041 307.883 57.203C307.95 57.671 308.083 58.1391 308.351 58.2728C310.892 59.5433 315.639 49.8479 317.378 47.1733C317.378 47.1733 317.979 45.5686 318.849 46.3041C319.45 46.839 318.648 47.307 318.648 47.307C317.779 48.31 311.627 59.8776 308.752 59.677C306.077 59.4764 306.011 57.203 306.011 57.203C305.609 45.9029 315.305 27.8495 322.727 13.741C311.627 14.2091 302.801 15.2789 302.601 15.3458C302.601 15.3458 301.531 14.8777 301.531 14.1422C301.531 13.1393 302.801 12.8049 302.801 12.8049C303.737 12.8049 312.764 12.2031 323.93 11.9357C325.669 8.59246 326.605 7.12144 326.805 6.72026C326.805 6.72026 327.675 5.65042 328.811 6.11847C329.681 6.51966 329.346 7.65636 329.346 7.65636C329.346 7.72322 328.143 8.85992 326.471 11.8688C342.452 11.5345 362.377 11.9357 369.799 15.1452V15.1452ZM343.391 43.1614C343.993 43.6295 343.124 44.1644 343.124 44.1644C342.589 44.7662 335.1 53.3248 329.483 52.7899C329.283 52.7899 329.082 52.7231 328.882 52.7231C328.213 52.5893 327.344 52.1213 326.809 50.8509C325.338 47.1064 327.745 43.1614 330.62 41.0218C332.425 39.6845 334.03 39.3502 334.966 40.1525C335.434 40.4869 335.702 41.0218 335.635 41.6235C335.568 43.6295 331.891 46.3041 330.754 47.0396C330.754 47.0396 330.286 47.1733 329.751 46.6384C329.216 46.0366 329.684 45.4348 329.684 45.4348C331.69 44.0975 333.495 42.3591 333.696 41.6235C333.295 41.6235 332.091 42.0916 330.687 43.4958C329.082 45.1674 327.678 47.7751 328.614 50.1153C329.55 51.9207 332.024 50.9846 334.03 50.1822C336.17 49.3798 340.784 45.3011 341.853 44.0307C341.853 44.0307 342.522 42.3591 343.391 43.1614V43.1614Z" fill="#111111"/>
</g>
<defs>
<clipPath id="clip0_101_2">
<rect width="370.233" height="85.0346" fill="white"/>
</clipPath>
</defs>
</svg>
